<?xml version="1.0" encoding="utf-8"?>
<!-- Generator: Adobe Illustrator 26.0.1, SVG Export Plug-In . SVG Version: 6.00 Build 0)  -->
<svg version="1.1" id="Layer_1" xmlns="http://www.w3.org/2000/svg" xmlns:xlink="http://www.w3.org/1999/xlink" x="0px" y="0px"
	 viewBox="0 0 549 557" style="enable-background:new 0 0 549 557;" xml:space="preserve">
<path d="M427,356.6H225H105c-32.5-1-62.4-17.8-80.2-45.1c-17.7-27.3-21-61.5-8.7-91.6c12.3-30.1,38.5-52.3,70.3-59.4
	c-3.4-21.1,2.2-42.7,15.5-59.5C115.3,84.3,135,74,156.4,72.6c21.4-1.4,42.3,6.3,57.7,21.1c18.9-41.5,57-70.9,102-78.5
	c44.9-7.6,90.7,7.5,122.2,40.4c31.5,32.9,44.7,79.3,35.1,123.8c19.5,4.9,36.9,16.1,49.3,32c12.4,15.9,19.1,35.4,19.1,55.6
	c0.1,23.7-9.3,46.5-26.1,63.2c-16.7,16.8-39.4,26.3-63.1,26.5L427,356.6z M225,345.6h227.5c20.8-0.2,40.7-8.5,55.5-23.3
	c14.7-14.7,23-34.7,22.9-55.5c0-18.6-6.5-36.6-18.4-50.8c-11.9-14.3-28.4-23.9-46.7-27.2c-1.5-0.3-2.8-1.2-3.6-2.4
	c-0.8-1.3-1.1-2.8-0.7-4.3c10.9-42.1-0.6-86.9-30.5-118.5c-29.9-31.6-74-45.6-116.6-37.1c-42.7,8.5-77.9,38.4-93.4,79.1
	c-0.7,1.8-2.3,3.1-4.2,3.5s-3.9-0.4-5.1-1.9c-12.5-15.3-31.3-24.1-51.1-23.9c-19.8,0.2-38.4,9.5-50.5,25.1
	c-12.1,15.6-16.5,36-11.8,55.2c0.4,1.5,0.1,3-0.8,4.3c-0.8,1.3-2.2,2.1-3.7,2.4c-29.2,4.7-54.1,23.7-66.3,50.7
	c-12.2,26.9-10.2,58.2,5.5,83.3c15.7,25.1,42.9,40.7,72.4,41.5L225,345.6z"/>
<path d="M133.2,178.1c-1.2,0-2.4-0.4-3.4-1.2c-9.1-7.2-29.7-7-36.8-6.3c-3,0.3-5.7-1.9-6-5c-0.3-3,1.9-5.7,5-6
	c5.5-0.4,10.9-0.4,16.4-0.1c12.5,0.9,22,3.8,28.2,8.6c1.8,1.4,2.6,3.9,1.8,6.1C137.5,176.6,135.5,178,133.2,178.1L133.2,178.1z"/>
<path d="M410.2,193.7c-2.6,0-4.9-1.9-5.4-4.4s0.9-5.1,3.4-6.1c29.2-11.6,60.3-5,61.6-4.8c3,0.6,4.8,3.5,4.2,6.5
	c-0.6,3-3.6,4.8-6.5,4.2c-0.3-0.1-29.2-6.1-55.3,4.2C411.6,193.6,410.9,193.7,410.2,193.7L410.2,193.7z"/>
<path d="M212.5,269.1c-36.5,0-36.5-35.7-36.5-47.4c0-17.9,0-55.1,37.4-55.1c11.4,0,20.2,3.3,26.2,9.7c8.3,8.9,7.5,20.5,7.4,21h0
	c-0.2,3-2.8,5.3-5.9,5.1c-3-0.2-5.3-2.8-5.1-5.9c0-0.2,0.3-7.6-4.6-12.9c-3.8-4-9.8-6.1-18.1-6.1c-22.1,0-26.5,16.2-26.5,44.1
	c0,25.9,7.4,36.5,25.5,36.5c22.6,0,25.5-11.4,25.5-21.2c0-3,2.4-5.5,5.5-5.5c3,0,5.5,2.4,5.5,5.5C249,251.6,242.7,269.1,212.5,269.1
	L212.5,269.1z"/>
<path d="M391.6,267.2h-33.5c-2.2,0-4.2-1.4-5.1-3.4s-0.3-4.4,1.3-6c0.9-0.9,22-20.9,27.3-25.7c2.1-1.8,3.5-4.2,3.8-7v-0.5
	c0-1.9-0.6-3.7-1.8-5.1c-2.2-2.3-6.1-2.8-9-2.8c-4,0-7,1-8.8,2.8v0c-1.6,1.8-2.4,4.2-2.4,6.6c0.2,3-2.1,5.6-5.1,5.8
	c-1.5,0.1-2.9-0.4-4-1.4c-1.1-1-1.8-2.3-1.8-3.8c-0.2-5.4,1.7-10.6,5.2-14.6c3.9-4.2,9.6-6.3,16.8-6.3c7.5,0,13.3,2.2,17.1,6.4h0
	c3.2,3.6,4.8,8.4,4.6,13.2c-0.4,5.7-3.1,11.1-7.5,14.8c-2.9,2.5-10.6,9.8-17.1,16h19.8c3,0,5.5,2.4,5.5,5.5S394.6,267.2,391.6,267.2
	L391.6,267.2z"/>
<path d="M299.2,269.1c-28.7,0-36.3-23.7-36.3-36.3V202c0-0.4,0.4-36.2,36.3-36.2c28.7,0,36.3,23.7,36.3,36.2v30.8
	C335.5,245.3,327.9,269.1,299.2,269.1L299.2,269.1z M299.2,176.7c-24.4,0-25.3,22.7-25.3,25.3v30.7c0,2.6,0.9,25.3,25.3,25.3
	c24.4,0,25.3-22.7,25.3-25.3V202C324.6,199.4,323.7,176.6,299.2,176.7L299.2,176.7z"/>
<path d="M104.1,549.1c-1.8,0-3.5-0.9-4.6-2.4c-7.1-11-10-24.2-8.3-37.2c1.1-8,4.5-15,7.9-21.8c0.9-1.9,1.8-3.7,2.7-5.5
	c3.8-8,4.6-17.2,2.1-25.7c-1.3-4.2-2.9-8.3-4.8-12.3c-1.6-3.7-3.3-7.5-4.6-11.6c-2.9-9.1-4.3-18.6-4.2-28.2v-24.7
	c0-3,2.4-5.5,5.5-5.5s5.5,2.4,5.5,5.5v24.7c-0.1,8.4,1.1,16.8,3.7,24.8c1.2,3.5,2.7,7,4.3,10.6h0c2.1,4.4,3.8,9,5.3,13.7
	c3.2,11.1,2.3,22.9-2.7,33.3c-0.9,2-1.9,3.9-2.8,5.8c-3.1,6.2-6,12.2-6.8,18.3c-1.3,10.4,1,20.9,6.6,29.7c1.1,1.7,1.2,3.8,0.3,5.6
	C108,548,106.2,549.1,104.1,549.1L104.1,549.1z"/>
<path d="M66,413.8c-2.2,0-4.2-1.3-5.1-3.4c-0.8-2-0.4-4.4,1.2-6l29.7-29.7c2.1-2.1,5.6-2.1,7.7,0l29.7,29.7c2.1,2.1,2,5.6-0.1,7.7
	s-5.5,2.1-7.7,0.1l-25.8-25.8l-25.9,25.8C68.8,413.2,67.4,413.8,66,413.8L66,413.8z"/>
<path d="M344,549.1c-1.8,0-3.6-0.9-4.6-2.4c-7.1-11-10-24.2-8.3-37.2c1-8,4.5-15,7.9-21.8c1-1.9,1.8-3.7,2.7-5.5
	c3.8-8,4.6-17.2,2.1-25.7c-1.3-4.2-2.9-8.3-4.8-12.4c-1.6-3.7-3.3-7.5-4.6-11.6c-2.9-9.1-4.3-18.7-4.2-28.2v-24.7
	c0-3,2.4-5.5,5.5-5.5s5.5,2.4,5.5,5.5v24.7c-0.1,8.4,1.1,16.8,3.7,24.8c1.2,3.5,2.7,7,4.3,10.6h0c2.1,4.4,3.8,9,5.3,13.7
	c3.2,11.1,2.3,22.9-2.7,33.3c-0.9,2-1.9,3.9-2.8,5.8c-3.1,6.2-6,12.2-6.8,18.3h0c-1.3,10.4,1,20.9,6.6,29.7c1.1,1.7,1.2,3.8,0.2,5.6
	C347.9,548,346,549.1,344,549.1L344,549.1z"/>
<path d="M365.3,413.8c-1.5,0-2.8-0.6-3.9-1.6l-25.8-25.8l-25.8,25.8c-2.1,2.1-5.6,2-7.7-0.1s-2.1-5.5-0.1-7.7l29.7-29.7
	c2.1-2.1,5.6-2.1,7.7,0l29.7,29.7c1.6,1.6,2,3.9,1.2,6C369.5,412.4,367.5,413.7,365.3,413.8L365.3,413.8z"/>
<path d="M224.1,549.1c-1.8,0-3.5-0.9-4.6-2.4c-7.1-11-10-24.2-8.3-37.2c1-8,4.5-15,7.9-21.8c1-1.9,1.8-3.7,2.7-5.5
	c3.8-8,4.6-17.2,2.1-25.7c-1.3-4.2-2.9-8.3-4.8-12.4c-1.6-3.7-3.3-7.5-4.6-11.6c-2.9-9.1-4.3-18.7-4.2-28.2v-24.7
	c0-3,2.4-5.5,5.5-5.5c3,0,5.5,2.4,5.5,5.5v24.7c-0.1,8.4,1.1,16.8,3.6,24.8c1.2,3.5,2.7,7,4.3,10.6c2.1,4.4,3.8,9,5.3,13.7
	c3.2,11.1,2.3,22.9-2.7,33.3c-0.9,2-1.9,3.9-2.8,5.8c-3.1,6.2-6,12.2-6.8,18.3c-1.3,10.4,1,20.9,6.6,29.7c1.1,1.7,1.2,3.8,0.3,5.6
	C228,548,226.1,549.1,224.1,549.1L224.1,549.1z"/>
<path d="M245.3,413.8c-1.4,0-2.8-0.6-3.9-1.6l-25.8-25.8l-25.8,25.8c-2.1,2.1-5.6,2-7.7-0.1s-2.1-5.5-0.1-7.7l29.7-29.7
	c1-1,2.4-1.6,3.9-1.6s2.8,0.6,3.9,1.6l29.7,29.7c1.6,1.6,2,3.9,1.2,6C249.5,412.4,247.5,413.8,245.3,413.8L245.3,413.8z"/>
<path d="M464,549.1c-1.8,0-3.5-0.9-4.6-2.4c-7.1-11-10-24.2-8.3-37.2c1-8,4.5-15,7.9-21.8c0.9-1.9,1.8-3.7,2.7-5.5
	c3.8-8,4.6-17.2,2.1-25.7c-1.3-4.2-2.9-8.3-4.8-12.4c-1.6-3.7-3.3-7.5-4.6-11.6c-2.9-9.1-4.3-18.6-4.2-28.2v-24.7
	c0-3,2.4-5.5,5.5-5.5s5.5,2.4,5.5,5.5v24.7c-0.1,8.4,1.1,16.8,3.7,24.8c1.2,3.5,2.7,7,4.3,10.6h0c2.1,4.4,3.8,9,5.3,13.7
	c3.2,11.1,2.3,22.9-2.7,33.3c-0.9,2-1.9,3.9-2.8,5.8c-3.1,6.2-6,12.2-6.8,18.3c-1.3,10.4,1,20.9,6.6,29.7c1.1,1.7,1.2,3.8,0.3,5.6
	C467.8,548,466,549.1,464,549.1L464,549.1z"/>
<path d="M485.2,413.8c-1.4,0-2.8-0.6-3.9-1.6l-25.8-25.8l-25.8,25.8c-2.1,2.1-5.6,2-7.7-0.1s-2.1-5.5-0.1-7.7l29.7-29.7
	c2.1-2.1,5.6-2.1,7.7,0l29.7,29.7c1.6,1.6,2,3.9,1.2,6C489.5,412.4,487.5,413.8,485.2,413.8L485.2,413.8z"/>
</svg>
